HIERARCHY
ROOT Hips
{
    OFFSET 0.000000 0.000000 0.000000
    CHANNELS 6 Xposition Yposition Zposition Zrotation Xrotation Yrotation
    JOINT Spine
    {
        OFFSET -0.000000 14.517291 0.000000
        CHANNELS 3 Zrotation Xrotation Yrotation
        JOINT Spine1
        {
            OFFSET -0.000000 37.558300 0.000000
            CHANNELS 3 Zrotation Xrotation Yrotation
            JOINT Neck
            {
                OFFSET -0.000000 37.404057 3.400369
                CHANNELS 3 Zrotation Xrotation Yrotation
                JOINT Head
                {
                    OFFSET -0.000000 24.785618 -3.540803
                    CHANNELS 3 Zrotation Xrotation Yrotation
                    End Site
                    {
                        OFFSET -0.000000 35.408028 0.000000
                    }
                }
            }
            JOINT LeftShoulder
            {
                OFFSET 6.992933 33.973492 -0.192664
                CHANNELS 3 Zrotation Xrotation Yrotation
                JOINT LeftArm
                {
                    OFFSET 21.527611 0.000000 0.000000
                    CHANNELS 3 Zrotation Xrotation Yrotation
                    JOINT LeftForeArm
                    {
                        OFFSET 56.353916 0.000000 0.000000
                        CHANNELS 3 Zrotation Xrotation Yrotation
                        JOINT LeftHand
                        {
                            OFFSET 47.774071 0.000000 0.000000
                            CHANNELS 3 Zrotation Xrotation Yrotation
                            End Site
                            {
                                OFFSET 26.556021 0.000000 0.000000
                            }
                        }
                    }
                }
            }
            JOINT RightShoulder
            {
                OFFSET -7.065357 33.973492 -0.192664
                CHANNELS 3 Zrotation Xrotation Yrotation
                JOINT RightArm
                {
                    OFFSET -21.527611 0.000000 0.000000
                    CHANNELS 3 Zrotation Xrotation Yrotation
                    JOINT RightForeArm
                    {
                        OFFSET -56.353916 0.000000 0.000000
                        CHANNELS 3 Zrotation Xrotation Yrotation
                        JOINT RightHand
                        {
                            OFFSET -47.774071 0.000000 0.000000
                            CHANNELS 3 Zrotation Xrotation Yrotation
                            End Site
                            {
                                OFFSET -26.556021 0.000000 0.000000
                            }
                        }
                    }
                }
            }
        }
    }
    JOINT LeftUpLeg
    {
        OFFSET 17.704014 0.000000 0.000000
        CHANNELS 3 Zrotation Xrotation Yrotation
        JOINT LeftLeg
        {
            OFFSET -0.000000 -81.181816 0.000000
            CHANNELS 3 Zrotation Xrotation Yrotation
            JOINT LeftFoot
            {
                OFFSET -0.000000 -62.821102 0.000000
                CHANNELS 3 Zrotation Xrotation Yrotation
                JOINT LeftToeBase
                {
                    OFFSET -0.000000 -11.507608 26.556021
                    CHANNELS 3 Zrotation Xrotation Yrotation
                    End Site
                    {
                        OFFSET -0.000000 0.000000 7.081605
                    }
                }
            }
        }
    }
    JOINT RightUpLeg
    {
        OFFSET -17.704014 0.000000 0.000000
        CHANNELS 3 Zrotation Xrotation Yrotation
        JOINT RightLeg
        {
            OFFSET -0.000000 -81.181816 0.000000
            CHANNELS 3 Zrotation Xrotation Yrotation
            JOINT RightFoot
            {
                OFFSET -0.000000 -62.821102 0.000000
                CHANNELS 3 Zrotation Xrotation Yrotation
                JOINT RightToeBase
                {
                    OFFSET -0.000000 -11.507608 26.556021
                    CHANNELS 3 Zrotation Xrotation Yrotation
                    End Site
                    {
                        OFFSET -0.000000 0.000000 7.081605
                    }
                }
            }
        }
    }
}
MOTION
Frames:    5
Frame Time:    0.008333
5.724825    153.340775    -130.053497    -5.444899    0.920299    6.931096    3.406754    -2.112695    6.919701    -4.170813    1.734963    2.347840    6.369246    -0.835226    -12.711241    11.273956    2.915114    -12.937057    3.725471    7.536729    -12.668693    -36.471169    22.754017    -42.594883    -10.509177    -1.379593    -118.576172    5.177488    -19.085136    -4.067464    -15.537197    -3.380769    -0.587727    23.530399    -22.806793    60.252632    -13.071421    -11.916901    48.729752    -0.212526    -6.103304    32.605148    4.613355    -7.042938    -20.170115    -11.167872    43.252502    -29.273499    21.194492    -25.994856    46.237259    0.000000    0.000000    0.000000    -0.127496    -30.608898    2.738894    7.761978    11.143162    -8.094361    -2.163389    21.659683    -1.469525    0.000000    0.000000    0.000000    
5.747121    153.321487    -130.043900    -5.461501    0.880177    6.965195    3.414071    -2.116870    6.875251    -4.162329    1.748002    2.333291    6.381764    -0.843693    -12.723473    11.218200    2.891959    -12.956450    3.729695    7.547840    -12.666374    -36.468670    22.718889    -42.578941    -10.529487    -1.330807    -118.535828    5.136180    -19.057514    -4.073752    -15.518693    -3.362724    -0.603865    23.488632    -22.838518    60.253834    -13.065801    -11.875607    48.728470    -0.239542    -6.071902    32.577377    4.655420    -7.027936    -20.165369    -11.259296    43.282532    -29.212904    21.247551    -25.994497    46.202724    0.000000    0.000000    0.000000    -0.142031    -30.641483    2.799240    7.806452    11.289754    -8.049584    -2.113878    21.594507    -1.617150    0.000000    0.000000    0.000000    
5.765502    153.305817    -130.029816    -5.480787    0.831522    6.992229    3.423732    -2.102203    6.837111    -4.146219    1.742790    2.320243    6.378668    -0.840979    -12.724149    11.170149    2.856977    -12.958626    3.725277    7.574662    -12.658149    -36.453373    22.695299    -42.579235    -10.550645    -1.300765    -118.502197    5.128130    -19.052399    -4.080898    -15.508657    -3.348486    -0.606053    23.426411    -22.844133    60.235538    -13.084921    -11.852356    48.717510    -0.275619    -6.051445    32.549652    4.701778    -6.983569    -20.147211    -11.312531    43.281536    -29.213282    21.310959    -25.995890    46.204758    0.000000    0.000000    0.000000    -0.154766    -30.652845    2.901646    7.871006    11.406733    -8.057499    -2.044781    21.539839    -1.781487    0.000000    0.000000    0.000000    
5.781086    153.291122    -130.015198    -5.497439    0.787234    7.013214    3.437512    -2.090314    6.816391    -4.151379    1.738338    2.313265    6.388156    -0.811577    -12.715526    11.145997    2.779810    -12.944708    3.742826    7.582207    -12.672324    -36.455429    22.689047    -42.562294    -10.571819    -1.265164    -118.484215    5.196637    -19.048046    -4.041829    -15.492536    -3.352422    -0.620213    23.404036    -22.850731    60.224686    -13.082035    -11.799646    48.702484    -0.288133    -6.005017    32.565037    4.738864    -6.937744    -20.057491    -11.283762    43.286110    -29.270525    21.316971    -26.024557    46.162838    0.000000    0.000000    0.000000    -0.164896    -30.658869    2.951668    7.919421    11.511101    -8.024617    -1.995332    21.491062    -1.911470    0.000000    0.000000    0.000000    
5.802453    153.282440    -130.006241    -5.509876    0.748774    7.030983    3.466576    -2.076583    6.796789    -4.183517    1.732227    2.306986    6.446813    -0.779268    -12.717355    11.062348    2.694033    -12.955405    3.770335    7.588424    -12.687137    -36.459801    22.687065    -42.541096    -10.573344    -1.250964    -118.464912    5.191293    -19.031448    -4.069567    -15.474429    -3.363796    -0.614555    23.364460    -22.847343    60.176533    -13.081859    -11.764875    48.706249    -0.344792    -5.985748    32.555103    4.751113    -6.896186    -19.960577    -11.201028    43.303936    -29.360462    21.313574    -26.055067    46.130703    0.000000    0.000000    0.000000    -0.174882    -30.666075    2.991309    7.950082    11.603042    -8.057145    -1.956657    21.453892    -1.948446    0.000000    0.000000    0.000000    
